<?xml version="1.0" encoding="UTF-8"?>
<svg version="1.1" xmlns="http://www.w3.org/2000/svg" width="130" height="48">
<path d="M0 0 C1.43859375 -0.01740234 1.43859375 -0.01740234 2.90625 -0.03515625 C8.71224927 -0.01123043 12.84716576 0.66976202 18 3.375 C16.99806563 7.16803725 16.18975773 10.09036341 14 13.375 C12.865625 13.230625 11.73125 13.08625 10.5625 12.9375 C7.4595645 12.55169985 4.35597581 12.17306104 1.25 11.8125 C0.53328125 11.72871094 -0.1834375 11.64492187 -0.921875 11.55859375 C-2.9409765 11.38021448 -4.97303428 11.375 -7 11.375 C-7.06226457 13.32990421 -7.06226457 13.32990421 -6 15.375 C-3.56339981 16.40852708 -1.34465069 17.17895858 1.1875 17.875 C6.47013828 19.3696001 10.49254485 21.08736267 15 24.375 C15.99 25.035 16.98 25.695 18 26.375 C21.52639987 18.86170819 24.90724597 11.33572516 28.01953125 3.640625 C29 1.375 29 1.375 30 0.375 C32.18639453 0.30241054 34.37500389 0.29126217 36.5625 0.3125 C38.35880859 0.32603516 38.35880859 0.32603516 40.19140625 0.33984375 C41.11824219 0.35144531 42.04507813 0.36304687 43 0.375 C46.28873301 6.75514204 49.4388238 13.09641248 51.9453125 19.828125 C53.44070154 23.4392126 55.22196008 26.89617959 57 30.375 C57.38857178 29.50174072 57.77714355 28.62848145 58.17749023 27.72875977 C59.61576644 24.49806913 61.0570533 21.26872924 62.49926758 18.03979492 C63.12379229 16.64042404 63.74749298 15.2406851 64.37036133 13.84057617 C65.26428815 11.83155209 66.16114176 9.82385761 67.05859375 7.81640625 C67.3377916 7.18722794 67.61698944 6.55804962 67.90464783 5.9098053 C69.88612829 1.48887171 69.88612829 1.48887171 71 0.375 C73.18639453 0.30241054 75.37500389 0.29126217 77.5625 0.3125 C79.35880859 0.32603516 79.35880859 0.32603516 81.19140625 0.33984375 C82.11824219 0.35144531 83.04507813 0.36304687 84 0.375 C89.03467984 11.3736092 94.05569992 22.36666231 98.75 33.515625 C99.86756822 36.07206231 101.07765921 38.53144878 102.375 41 C104 44.375 104 44.375 104 48.375 C101.94217944 48.59192984 99.87773787 48.74663893 97.8125 48.875 C96.08966797 49.01421875 96.08966797 49.01421875 94.33203125 49.15625 C91 48.375 91 48.375 89.8034668 46.59375 C89.25106323 45.5109375 89.25106323 45.5109375 88.6875 44.40625 C86.97228245 41.20330836 86.97228245 41.20330836 83.83276367 39.62304688 C81.25631653 39.36507208 78.77588501 39.3170943 76.1875 39.375 C75.30384766 39.36339844 74.42019531 39.35179687 73.50976562 39.33984375 C71.3399389 39.31638616 69.16968608 39.34093231 67 39.375 C66.01 42.345 65.02 45.315 64 48.375 C59.05 48.375 54.1 48.375 49 48.375 C47.68 45.735 46.36 43.095 45 40.375 C35.97536191 39.58230187 35.97536191 39.58230187 27 40.375 C24.93290689 42.3635959 24.35161855 43.943429 23.34375 46.59375 C22 48.375 22 48.375 18.84375 48.90625 C15.5303722 48.87793053 12.29437496 48.72228404 9 48.375 C9 47.385 9 46.395 9 45.375 C8.44054688 45.5915625 7.88109375 45.808125 7.3046875 46.03125 C-3.94431122 49.9376547 -14.83547763 49.20283624 -26 45.375 C-26.34833144 40.49835991 -25.41685712 37.60449995 -23 33.375 C-21.845 33.705 -20.69 34.035 -19.5 34.375 C-12.43741694 35.98477014 -5.19632054 35.53393714 2 35.375 C2 34.385 2 33.395 2 32.375 C1.39414062 32.21644531 0.78828125 32.05789062 0.1640625 31.89453125 C-8.24039857 29.55421209 -16.53095947 26.42668307 -23 20.375 C-24.53214888 17.31070224 -24.22938548 14.7584358 -24 11.375 C-21.48144262 6.09802264 -18.59120536 3.28096396 -13.18457031 1.02099609 C-8.86831159 -0.25535846 -4.46522891 -0.05401487 0 0 Z M36 17.375 C33.525 23.315 33.525 23.315 31 29.375 C34.63 29.375 38.26 29.375 42 29.375 C40.35 25.415 38.7 21.455 37 17.375 C36.67 17.375 36.34 17.375 36 17.375 Z M77 17.375 C76.16180842 18.99749941 75.3295884 20.62308497 74.5 22.25 C74.0359375 23.15492187 73.571875 24.05984375 73.09375 24.9921875 C71.86094411 27.24096859 71.86094411 27.24096859 72 29.375 C75.63 29.375 79.26 29.375 83 29.375 C81.35 25.415 79.7 21.455 78 17.375 C77.67 17.375 77.34 17.375 77 17.375 Z " fill="#064790" transform="translate(26,-0.375)"/>
<path d="M0 0 C4.29 0 8.58 0 13 0 C12.67 0.99 12.34 1.98 12 3 C7.71 3 3.42 3 -1 3 C-0.67 2.01 -0.34 1.02 0 0 Z " fill="#1C599B" transform="translate(97,0)"/>
<path d="" fill="#0000FF" transform="translate(0,0)"/>
<path d="" fill="#0000FF" transform="translate(0,0)"/>
</svg>